<?xml version="1.0" encoding="utf-8"?>
<!-- Generator: Adobe Illustrator 24.0.3, SVG Export Plug-In . SVG Version: 6.00 Build 0)  -->
<svg version="1.1" id="Layer_1" xmlns="http://www.w3.org/2000/svg" xmlns:xlink="http://www.w3.org/1999/xlink" x="0px" y="0px"
	 viewBox="0 0 512 512" style="enable-background:new 0 0 512 512;" xml:space="preserve">
<g>
	<rect style="fill:#F9F9F9;" width="512" height="512"/>
</g>
<path style="fill:#007BFF;" d="M238,248H26c-5.5,0-10-4.5-10-10V26c0-5.5,4.5-10,10-10h212c5.5,0,10,4.5,10,10v212
	C248,243.5,243.5,248,238,248z"/>
<path style="fill:#DC3545;" d="M486,248H274c-5.5,0-10-4.5-10-10V26c0-5.5,4.5-10,10-10h212c5.5,0,10,4.5,10,10v212
	C496,243.5,491.5,248,486,248z"/>
<path style="fill:#FFDF00;" d="M238,496H26c-5.5,0-10-4.5-10-10V274c0-5.5,4.5-10,10-10h212c5.5,0,10,4.5,10,10v212
	C248,491.5,243.5,496,238,496z"/>
<path style="fill:#28A745;" d="M486,496H274c-5.5,0-10-4.5-10-10V274c0-5.5,4.5-10,10-10h212c5.5,0,10,4.5,10,10v212
	C496,491.5,491.5,496,486,496z"/>
</svg>
